<svg width="108" height="20" viewBox="0 0 108 20" fill="none" xmlns="http://www.w3.org/2000/svg">
<path d="M10.4023 19L3.79826 10.914L3.79826 19L0.158258 19L0.158258 0.852L3.79826 0.852L3.79826 8.99L10.4023 0.852L14.7963 0.852L7.30826 9.848L15.0043 19L10.4023 19ZM28.0585 19L24.0545 11.928L22.3385 11.928L22.3385 19L18.6985 19L18.6985 0.852L25.5105 0.852C26.9145 0.852 28.1105 1.10333 29.0985 1.606C30.0865 2.09133 30.8232 2.75867 31.3085 3.608C31.8112 4.44 32.0625 5.376 32.0625 6.416C32.0625 7.612 31.7158 8.69533 31.0225 9.666C30.3292 10.6193 29.2978 11.278 27.9285 11.642L32.2705 19L28.0585 19ZM22.3385 9.198L25.3805 9.198C26.3685 9.198 27.1052 8.964 27.5905 8.496C28.0758 8.01067 28.3185 7.34333 28.3185 6.494C28.3185 5.662 28.0758 5.02067 27.5905 4.57C27.1052 4.102 26.3685 3.868 25.3805 3.868L22.3385 3.868L22.3385 9.198ZM47.7827 15.542L40.5547 15.542L39.3587 19L35.5367 19L42.0627 0.825998L46.3007 0.825998L52.8267 19L48.9787 19L47.7827 15.542ZM46.7947 12.63L44.1687 5.038L41.5427 12.63L46.7947 12.63ZM68.9161 0.852L68.9161 3.79L64.0801 3.79L64.0801 19L60.4401 19L60.4401 3.79L55.6041 3.79L55.6041 0.852L68.9161 0.852ZM81.2959 19.182C79.5973 19.182 78.0373 18.7833 76.6159 17.986C75.1946 17.1887 74.0679 16.088 73.2359 14.684C72.4039 13.2627 71.9879 11.6593 71.9879 9.874C71.9879 8.106 72.4039 6.52 73.2359 5.116C74.0679 3.69467 75.1946 2.58533 76.6159 1.788C78.0373 0.990666 79.5973 0.592 81.2959 0.592C83.0119 0.592 84.5719 0.990666 85.9759 1.788C87.3973 2.58533 88.5153 3.69467 89.3299 5.116C90.1619 6.52 90.5779 8.106 90.5779 9.874C90.5779 11.6593 90.1619 13.2627 89.3299 14.684C88.5153 16.088 87.3973 17.1887 85.9759 17.986C84.5546 18.7833 82.9946 19.182 81.2959 19.182ZM81.2959 15.932C82.3879 15.932 83.3499 15.6893 84.1819 15.204C85.0139 14.7013 85.6639 13.9907 86.1319 13.072C86.5999 12.1533 86.8339 11.0873 86.8339 9.874C86.8339 8.66067 86.5999 7.60333 86.1319 6.702C85.6639 5.78333 85.0139 5.08133 84.1819 4.596C83.3499 4.11067 82.3879 3.868 81.2959 3.868C80.2039 3.868 79.2333 4.11067 78.3839 4.596C77.5519 5.08133 76.9019 5.78333 76.4339 6.702C75.9659 7.60333 75.7319 8.66067 75.7319 9.874C75.7319 11.0873 75.9659 12.1533 76.4339 13.072C76.9019 13.9907 77.5519 14.7013 78.3839 15.204C79.2333 15.6893 80.2039 15.932 81.2959 15.932ZM100.852 19.182C99.5867 19.182 98.4427 18.9653 97.42 18.532C96.4147 18.0987 95.6173 17.4747 95.028 16.66C94.4387 15.8453 94.1353 14.8833 94.118 13.774L98.018 13.774C98.07 14.5193 98.33 15.1087 98.798 15.542C99.2833 15.9753 99.942 16.192 100.774 16.192C101.623 16.192 102.291 15.9927 102.776 15.594C103.261 15.178 103.504 14.6407 103.504 13.982C103.504 13.4447 103.339 13.0027 103.01 12.656C102.681 12.3093 102.265 12.0407 101.762 11.85C101.277 11.642 100.601 11.4167 99.734 11.174C98.5553 10.8273 97.5933 10.4893 96.848 10.16C96.12 9.81333 95.4873 9.302 94.95 8.626C94.43 7.93267 94.17 7.014 94.17 5.87C94.17 4.79533 94.4387 3.85933 94.976 3.062C95.5133 2.26467 96.2673 1.658 97.238 1.242C98.2087 0.808666 99.318 0.592 100.566 0.592C102.438 0.592 103.955 1.05133 105.116 1.97C106.295 2.87133 106.945 4.13667 107.066 5.766L103.062 5.766C103.027 5.142 102.759 4.63067 102.256 4.232C101.771 3.816 101.121 3.608 100.306 3.608C99.5953 3.608 99.0233 3.79 98.59 4.154C98.174 4.518 97.966 5.04667 97.966 5.74C97.966 6.22533 98.122 6.63267 98.434 6.962C98.7633 7.274 99.162 7.534 99.63 7.742C100.115 7.93267 100.791 8.158 101.658 8.418C102.837 8.76467 103.799 9.11133 104.544 9.458C105.289 9.80467 105.931 10.3247 106.468 11.018C107.005 11.7113 107.274 12.6213 107.274 13.748C107.274 14.7187 107.023 15.62 106.52 16.452C106.017 17.284 105.281 17.9513 104.31 18.454C103.339 18.9393 102.187 19.182 100.852 19.182Z" fill="white"/>
</svg>
