<svg version="1.2" xmlns="http://www.w3.org/2000/svg" viewBox="0 0 98 67" width="98" height="67"><style>.a{display:none}</style><path class="a" d="m0 0h98v67h-98z"/><path  d="m8.7 15.6l-7.8-11.5h3.2l6.1 9 6-9h3.2l-7.7 11.5v10.4h-3zm-0.8 0l-7.7-11.5h3.1l6.1 9 6-9h3.2l-7.7 11.5v10.4h-3zm22.4-9.4q-3.2 0-5.1 2.4-1.9 2.4-1.9 6.5 0 4.1 1.9 6.6 1.9 2.4 5.1 2.4 3.2 0 5.1-2.4 1.9-2.5 1.9-6.6 0-4.1-1.9-6.5-1.9-2.4-5.1-2.4zm0-2.4q4.6 0 7.4 3.1 2.7 3 2.7 8.2 0 5.2-2.7 8.3-2.8 3.1-7.4 3.1-4.6 0-7.4-3.1-2.7-3.1-2.7-8.3 0-5.2 2.7-8.2 2.8-3.1 7.4-3.1zm-0.8 2.4q-3.2 0-5.1 2.4-1.9 2.4-1.9 6.5 0 4.1 1.9 6.6 1.9 2.4 5.1 2.4 3.3 0 5.1-2.4 1.9-2.5 1.9-6.6 0-4.1-1.9-6.5-1.8-2.4-5.1-2.4zm0-2.4q4.6 0 7.4 3.1 2.7 3 2.7 8.2 0 5.2-2.7 8.3-2.8 3.1-7.4 3.1-4.6 0-7.4-3.1-2.7-3.1-2.7-8.3 0-5.2 2.7-8.2 2.8-3.1 7.4-3.1zm16 14v-13.6h3v13.2q0 3.6 1.3 5.1 1.3 1.6 4.1 1.6 2.8 0 4.1-1.6 1.3-1.5 1.3-5.1v-13.2h3v13.6q0 4.3-2.2 6.5-2.1 2.2-6.2 2.2-4.1 0-6.3-2.2-2.1-2.2-2.1-6.5zm-0.8 0v-13.6h3v13.2q0 3.6 1.3 5.1 1.3 1.6 4.1 1.6 2.9 0 4.1-1.6 1.3-1.5 1.3-5.1v-13.2h3v13.6q0 4.3-2.1 6.5-2.2 2.2-6.3 2.2-4.1 0-6.3-2.2-2.1-2.2-2.1-6.5zm23.9 8.2v-21.8h4l9.7 18.3v-18.3h2.9v21.8h-4l-9.7-18.3v18.3zm-0.8 0v-21.8h4l9.7 18.3v-18.3h2.9v21.8h-4l-9.7-18.3v18.3zm24 0v-21.8h3v21.8zm-0.8 0v-21.8h3v21.8zm-70.7 36h-3.4l-8.3-21.8h3.1l6.9 18.4 7-18.4h3zm-0.8 0h-3.3l-8.4-21.9h3.1l7 18.4 6.9-18.4h3.1zm13.1 0v-21.9h13.8v2.5h-10.8v6.5h10.4v2.5h-10.4v7.9h11.1v2.5zm-0.8 0v-21.9h13.8v2.5h-10.8v6.5h10.4v2.5h-10.4v7.9h11.1v2.5zm30.9-10.3q1 0.4 1.9 1.4 0.9 1.1 1.8 2.9l3 6h-3.2l-2.8-5.6q-1.1-2.2-2.1-2.9-1-0.8-2.8-0.8h-3.2v9.3h-2.9v-21.9h6.6q3.8 0 5.6 1.6 1.9 1.6 1.9 4.7 0 2.1-1 3.4-0.9 1.4-2.8 1.9zm-3.7-9.1h-3.7v7.7h3.7q2.2 0 3.3-1 1.1-1 1.1-2.9 0-1.9-1.1-2.9-1.1-0.9-3.3-0.9zm2.9 9.1q1 0.4 1.9 1.4 0.9 1.1 1.8 2.9l3 6h-3.2l-2.8-5.6q-1.1-2.2-2.1-2.9-1-0.8-2.8-0.8h-3.2v9.3h-2.9v-21.9h6.6q3.8 0 5.6 1.6 1.9 1.6 1.9 4.7 0 2.1-1 3.4-0.9 1.4-2.8 1.9zm-3.7-9.1h-3.7v7.7h3.7q2.2 0 3.3-1 1.1-1 1.1-2.9 0-1.9-1.1-2.9-1.1-0.9-3.3-0.9zm28.9-1.8v2.9q-1.7-0.8-3.2-1.2-1.5-0.4-2.8-0.4-2.5 0-3.8 1-1.3 0.9-1.3 2.6 0 1.5 0.9 2.2 0.9 0.8 3.3 1.2l1.8 0.4q3.3 0.6 4.9 2.2 1.5 1.6 1.5 4.3 0 3.1-2.1 4.8-2.1 1.6-6.2 1.6-1.6 0-3.4-0.3-1.7-0.4-3.6-1.1v-3q1.8 1 3.6 1.5 1.7 0.5 3.4 0.5 2.5 0 3.9-1 1.3-1 1.3-2.8 0-1.6-1-2.5-0.9-1-3.2-1.4l-1.8-0.4q-3.3-0.6-4.8-2-1.5-1.4-1.5-3.9 0-2.9 2.1-4.6 2-1.7 5.6-1.7 1.6 0 3.2 0.3 1.5 0.3 3.2 0.8zm-0.8 0v2.9q-1.7-0.8-3.2-1.2-1.4-0.4-2.8-0.4-2.5 0-3.8 1-1.3 0.9-1.3 2.6 0 1.5 0.9 2.2 0.9 0.8 3.3 1.2l1.8 0.4q3.3 0.6 4.9 2.2 1.5 1.6 1.5 4.3 0 3.1-2.1 4.8-2.1 1.6-6.2 1.6-1.6 0-3.3-0.3-1.8-0.4-3.7-1.1v-3q1.8 1 3.6 1.5 1.7 0.5 3.4 0.5 2.5 0 3.9-1 1.4-1 1.4-2.8 0-1.6-1-2.5-1-1-3.3-1.4l-1.8-0.4q-3.3-0.6-4.8-2-1.4-1.4-1.4-3.9 0-2.9 2-4.6 2-1.7 5.6-1.7 1.6 0 3.2 0.3 1.6 0.3 3.2 0.8z"/></svg>