<svg id="Layer_1" data-name="Layer 1" xmlns="http://www.w3.org/2000/svg" viewBox="0 0 269 56"><defs><style>.cls-1{fill:#231f20;}</style></defs><path class="cls-1" d="M103.36,23.74l0-.12L96.4,21.76h6.25l-.15-.33c-.42-1-1.42-2.77-1.53-3l0-.07-8.49-3.54h3.15l4.86,2.75-.67-.89A23.37,23.37,0,0,0,82.46,7.31l-.25,0v.22L81,13.74,79.72,7.52V7.29l-.25,0a23.37,23.37,0,0,0-17.32,9.41l-.67.89,4.86-2.75h3.14L61,18.4l0,.07c-.11.19-1.11,2-1.53,3l-.15.33h6.25l-6.89,1.85h0l0,.12a23.67,23.67,0,0,0-.71,11l.08.46,4-4.26,4.61-1.53-3.59,2.41-4.18,5.78h-.2l.1.31A23.38,23.38,0,0,0,62.34,45l.25.32L64.85,40l4.75-2.91L66.41,41l0,0-1.71,6.52v0l.1.09a23.26,23.26,0,0,0,7.78,4.94l1,.4-.74-.74-1-3.84,1.79-3.86-.34,3.92v0l2,4.95v0l.12,0a23.57,23.57,0,0,0,5.5.65h0a23.57,23.57,0,0,0,5.5-.65l.12,0,2-5h0l-.34-3.94,1.79,3.86-1,3.84-.81.77,1.1-.43a23.26,23.26,0,0,0,7.78-4.94l.1-.09L95.55,41h0l-3.22-3.93L97.08,40l2.26,5.3.25-.32a23.56,23.56,0,0,0,3.71-7.09l.09-.3h-.2L99,31.8h0l-3.59-2.41L100,30.91l4,4.26.08-.46a23.67,23.67,0,0,0-.71-11Zm-4.68,8.39,4.13,5.72a22.92,22.92,0,0,1-3.35,6.5l-2-4.69-7.24-4.44,4.91,6,1.62,6.19A23,23,0,0,1,89.65,52l.9-3.61v0l-3-6.44.56,6.5-1.87,4.65a23.29,23.29,0,0,1-5.27.62h0a23.29,23.29,0,0,1-5.27-.62L73.8,48.42l.56-6.5-3,6.42v0l.9,3.63a23.08,23.08,0,0,1-7.09-4.58l1.62-6.19,4.91-6L64.5,39.65h0l-2,4.69a22.92,22.92,0,0,1-3.35-6.5l4.13-5.72L69.4,28l3.49,2.13v2.18l-1.07,1.07v3.35L75,39l5.63-3.63.19-.12V32.77L78.58,30.9h4.77l-2.26,1.87V35.2L86.91,39l3.2-2.21V33.39L89,32.32V30.14L92.53,28Zm-20.77-8-5.23-2.05H69.56V18.56l5-3.19h2.73L81,18.61l3.63-3.24h2.73l5.05,3.19V22h-3.1L84,24.1l1.45,6.21V25.09l4.27.24,3-2.1V27.3L88.6,29.86l0,0v2.63l1.07,1.08v2.9l-2.74,1.9L81.56,35V33l3.09-2.56H77.28L80.37,33v2L75,38.39l-2.75-1.9v-2.9l1.08-1.08V29.88L69.15,27.3V23.23l3,2.08,0,0,4.27-.24v5.22Zm25.78,10-3.4-3.65L92.62,28l.43-.27.2-.12V22.34l-3.64,2.51L85,24.6v1.63l-.43-1.84,4.78-1.88h3.49V18.3L87.56,15l-.1-.06h-3L81,18,77.52,14.9h-3l-5.38,3.4v4.21h3.49l4.78,1.88-.43,1.84V24.6l-4.61.25-3.64-2.51v5.22l.63.39L61.64,30.5l-3.4,3.65A23.42,23.42,0,0,1,59,24l10.11-2.71H60c.43-.92,1.15-2.22,1.32-2.52l10.5-4.38H66.22l-3,1.68a23.06,23.06,0,0,1,16-8.28L81,16.14l1.67-8.35a23.06,23.06,0,0,1,16.05,8.28l-3-1.67H90.1l10.5,4.38c.17.3.89,1.6,1.32,2.52H92.84L103,24a23.42,23.42,0,0,1,.74,10.15Z"/><path class="cls-1" d="M83.88,37.35H78.05L75.44,39v5.55l4.12,3.74L81,45.14l1.41,3.19,4.12-3.74V39Zm-8,7V39.29l2.28-1.47h5.55L86,39.29v5.09l-3.48,3.16L81,44l-1.57,3.57Z"/><polygon class="cls-1" points="107.61 29.39 106.43 29.39 106.43 11.96 108.11 11.96 115.63 23.03 114.65 23.69 107.61 13.32 107.61 29.39"/><polygon class="cls-1" points="136.75 29.98 122.66 29.98 122.66 13.32 115.14 24.41 114.53 23.52 114.95 23.23 114.65 23.03 122.16 11.96 123.84 11.96 123.84 28.8 136.75 28.8 136.75 29.98"/><rect class="cls-1" x="123.25" y="11.96" width="13.5" height="1.18"/><polygon class="cls-1" points="123.25 29.98 106.43 29.98 106.43 29.27 107.02 29.27 107.02 28.8 123.25 28.8 123.25 29.98"/><rect class="cls-1" x="114.55" y="29.39" width="1.18" height="19.75"/><rect class="cls-1" x="123.25" y="47.97" width="13.5" height="1.18"/><path class="cls-1" d="M146.49,30h-6.76V12h6.76a9,9,0,0,1,0,18Zm-5.58-1.18h5.58a7.83,7.83,0,0,0,0-15.66h-5.58Z"/><rect class="cls-1" x="157.65" y="11.96" width="1.18" height="37.19"/><polygon class="cls-1" points="177.62 11.96 177.62 29.32 176.23 29.32 164.38 14.26 164.38 29.39 163.2 29.39 163.2 11.96 164.08 11.96 176.44 27.69 176.44 11.96 177.62 11.96"/><rect class="cls-1" x="183.19" y="25.01" width="6.11" height="1.18"/><polygon class="cls-1" points="198.04 29.32 196.74 29.32 189.42 13.69 182.1 29.32 180.8 29.32 188.93 11.96 189.91 11.96 198.04 29.32"/><rect class="cls-1" x="189.3" y="25.01" width="6.11" height="1.18"/><path class="cls-1" d="M147.38,49.15a9.5,9.5,0,1,1,6.72-16.21l-.83.83a8.32,8.32,0,1,0,0,11.75l.84.84A9.46,9.46,0,0,1,147.38,49.15Z"/><rect class="cls-1" x="170.7" y="29.39" width="1.18" height="19.76"/><rect class="cls-1" x="158.24" y="39.06" width="13.05" height="1.18"/><rect class="cls-1" x="163.2" y="29.32" width="1.18" height="0.07"/><polygon class="cls-1" points="136.55 6.68 136.55 7.17 132.39 11.33 131.84 10.78 135.69 6.92 131.83 3.07 132.39 2.52 136.55 6.68"/><path class="cls-1" d="M189.19,48.63v.52H187V45.5h.52v3.13Z"/><path class="cls-1" d="M191,46h-1.1V45.5h2.73V46h-1.1v3.14H191Z"/><path class="cls-1" d="M197.06,47.33a1.74,1.74,0,0,1-1.8,1.82H194V45.5h1.31A1.75,1.75,0,0,1,197.06,47.33Zm-.52,0a1.24,1.24,0,0,0-1.28-1.3h-.78v2.6h.78A1.24,1.24,0,0,0,196.54,47.33Z"/></svg>