<svg xmlns="http://www.w3.org/2000/svg" width="12.219" height="12.263" viewBox="0 0 12.219 12.263">
  <path id="Path_28" data-name="Path 28" d="M104.731,17.491A5.113,5.113,0,0,0,96,21.109a5.245,5.245,0,0,0,1.565,3.821l.139.131c.575.538,1.362,1.275,1.362,1.925v.766a.511.511,0,0,0,.511.511h.766a.255.255,0,0,0,.255-.255V24.265a.255.255,0,0,0-.164-.239,4.176,4.176,0,0,1-.835-.458.511.511,0,1,1,.593-.83,1.221,1.221,0,0,0,1.834,0,.511.511,0,0,1,.593.83,4.175,4.175,0,0,1-.835.457.255.255,0,0,0-.164.239v3.743a.255.255,0,0,0,.255.255h.766a.511.511,0,0,0,.511-.511v-.766c0-.635.778-1.371,1.346-1.909l.157-.149a5.138,5.138,0,0,0,1.563-3.819A5.083,5.083,0,0,0,104.731,17.491Z" transform="translate(-96 -16)"/>
</svg>