<svg xmlns="http://www.w3.org/2000/svg"  width="11" height="11.2" viewBox="0 0 11 11.2" >
  <path id="Icon_awesome-user-check" data-name="Icon awesome-user-check" d="M4.9,5.6A2.8,2.8,0,1,0,2.1,2.8,2.8,2.8,0,0,0,4.9,5.6Zm1.96.7H6.495a3.808,3.808,0,0,1-3.189,0H2.94A2.941,2.941,0,0,0,0,9.24v.91A1.05,1.05,0,0,0,1.05,11.2h7.7A1.05,1.05,0,0,0,9.8,10.15V9.24A2.941,2.941,0,0,0,6.86,6.3Zm7.066-2.809-.608-.615a.259.259,0,0,0-.368,0L10.657,5.149l-1-1a.259.259,0,0,0-.368,0l-.615.61a.259.259,0,0,0,0,.367l1.787,1.8a.259.259,0,0,0,.368,0l3.091-3.067a.261.261,0,0,0,0-.367Z"/>
</svg>
