<svg xmlns="http://www.w3.org/2000/svg"  width="13" height="12" viewBox="0 0 13 12">
  <path id="Icon_awesome-users" data-name="Icon awesome-users" d="M2.1,6.45A1.4,1.4,0,1,0,.7,5.05,1.4,1.4,0,0,0,2.1,6.45Zm9.8,0a1.4,1.4,0,1,0-1.4-1.4A1.4,1.4,0,0,0,11.9,6.45Zm.7.7H11.2a1.4,1.4,0,0,0-.987.407A3.2,3.2,0,0,1,11.856,9.95H13.3a.7.7,0,0,0,.7-.7v-.7A1.4,1.4,0,0,0,12.6,7.15ZM7,7.15A2.45,2.45,0,1,0,4.55,4.7,2.449,2.449,0,0,0,7,7.15Zm1.68.7H8.5a3.383,3.383,0,0,1-3,0H5.32A2.521,2.521,0,0,0,2.8,10.37V11a1.05,1.05,0,0,0,1.05,1.05h6.3A1.05,1.05,0,0,0,11.2,11v-.63A2.521,2.521,0,0,0,8.68,7.85ZM3.787,7.557A1.4,1.4,0,0,0,2.8,7.15H1.4A1.4,1.4,0,0,0,0,8.55v.7a.7.7,0,0,0,.7.7H2.142A3.208,3.208,0,0,1,3.787,7.557Z" transform="translate(0 -2.25)"/>
</svg>
