<svg xmlns="http://www.w3.org/2000/svg" width="8.816" height="12" viewBox="0 0 8.816 12">
  <path id="Path_24" data-name="Path 24" d="M6.735,2.571H6.2V0H.245A.245.245,0,0,0,0,.245v11.51A.245.245,0,0,0,.245,12H8.571a.245.245,0,0,0,.245-.245V2.571H6.735Zm-3.061.857H4.9v.49H3.673Zm0,2.694H4.9v.49H3.673Zm0,2.694H4.9v.49H3.673Zm-.367,1.347a.245.245,0,0,1-.245.245H1.837a.245.245,0,0,1-.245-.245V8.939a.245.245,0,0,1,.245-.245H3.061a.245.245,0,0,1,.245.245Zm0-2.694a.245.245,0,0,1-.245.245H1.837a.245.245,0,0,1-.245-.245V6.245A.245.245,0,0,1,1.837,6H3.061a.245.245,0,0,1,.245.245Zm0-2.694a.245.245,0,0,1-.245.245H1.837a.245.245,0,0,1-.245-.245V3.551a.245.245,0,0,1,.245-.245H3.061a.245.245,0,0,1,.245.245Zm3.673,5.51H3.673V9.8H6.98Zm0-2.694H3.673V7.1H6.98Zm0-2.694H3.673v-.49H6.98Z"/>
</svg>