<svg xmlns="http://www.w3.org/2000/svg" width="16" height="11.2" viewBox="0 0 36 36">
  <g id="Skill" transform="translate(0.001 -19.723)">
    <g id="XMLID_351_" transform="translate(12.792 21.521)">
      <path id="XMLID_352_" d="M85.009,35.985h18.566a2.321,2.321,0,0,0,0-4.641H85.009a2.321,2.321,0,1,0,0,4.641Z" transform="translate(-82.688 -31.344)"/>
    </g>
    <g id="XMLID_439_" transform="translate(12.792 32.351)">
      <path id="XMLID_440_" d="M103.574,101.344H85.009a2.321,2.321,0,1,0,0,4.641h18.566a2.321,2.321,0,0,0,0-4.641Z" transform="translate(-82.688 -101.344)"/>
    </g>
    <g id="XMLID_441_" transform="translate(12.792 43.181)">
      <path id="XMLID_443_" d="M103.574,171.344H85.009a2.321,2.321,0,0,0,0,4.641h18.566a2.321,2.321,0,0,0,0-4.641Z" transform="translate(-82.688 -171.344)"/>
    </g>
    <g id="XMLID_444_" transform="translate(-0.001 30.553)">
      <path id="XMLID_445_" d="M7.547,91.995,6,91.77l-.691-1.4a1.16,1.16,0,0,0-2.081,0l-.691,1.4-1.545.225a1.16,1.16,0,0,0-.643,1.979l1.118,1.09L1.2,96.6a1.16,1.16,0,0,0,1.683,1.223L4.269,97.1l1.383.727a1.159,1.159,0,0,0,.54.133h0a1.162,1.162,0,0,0,1.126-1.443l-.249-1.453,1.118-1.09a1.16,1.16,0,0,0-.643-1.979Z" transform="translate(0.001 -89.723)"/>
    </g>
    <g id="XMLID_446_" transform="translate(-0.001 19.723)">
      <path id="XMLID_447_" d="M7.547,21.995,6,21.77l-.691-1.4a1.16,1.16,0,0,0-2.081,0l-.691,1.4-1.545.225a1.16,1.16,0,0,0-.643,1.979l1.118,1.09L1.2,26.6a1.16,1.16,0,0,0,1.683,1.223L4.269,27.1l1.383.727a1.159,1.159,0,0,0,.54.133h0a1.162,1.162,0,0,0,1.126-1.443l-.249-1.453,1.118-1.09a1.16,1.16,0,0,0-.643-1.979Z" transform="translate(0.001 -19.723)"/>
    </g>
    <g id="XMLID_448_" transform="translate(-0.001 41.383)">
      <path id="XMLID_449_" d="M7.547,161.995,6,161.77l-.691-1.4a1.16,1.16,0,0,0-2.081,0l-.691,1.4-1.545.225a1.16,1.16,0,0,0-.643,1.979l1.118,1.09L1.2,166.6a1.16,1.16,0,0,0,1.683,1.223l1.383-.727,1.383.727a1.16,1.16,0,0,0,.54.133h0a1.162,1.162,0,0,0,1.126-1.443l-.249-1.453,1.118-1.09a1.16,1.16,0,0,0-.643-1.979Z" transform="translate(0.001 -159.723)"/>
    </g>
  </g>
</svg>
