<svg xmlns="http://www.w3.org/2000/svg" width="16.429" height="15.429" viewBox="0 0 16.429 15.429">
  <path id="Icon_awesome-exclamation-circle" data-name="Icon awesome-exclamation-circle" d="M14.991,7.777A7.214,7.214,0,1,1,7.777.563,7.214,7.214,0,0,1,14.991,7.777ZM7.777,9.231a1.338,1.338,0,1,0,1.338,1.338A1.338,1.338,0,0,0,7.777,9.231Zm-1.27-4.81.216,3.956a.349.349,0,0,0,.349.33H8.483a.349.349,0,0,0,.349-.33l.216-3.956A.349.349,0,0,0,8.7,4.053H6.855A.349.349,0,0,0,6.506,4.421Z" transform="translate(-0.563 -0.563)"/>
</svg>