<svg xmlns="http://www.w3.org/2000/svg" width="14" height="12" viewBox="0 0 14 12">
  <path id="Icon_awesome-users-cog" data-name="Icon awesome-users-cog" d="M13.356,9.021a2.566,2.566,0,0,0,0-.932l.564-.326a.158.158,0,0,0,.072-.186,3.283,3.283,0,0,0-.726-1.256.16.16,0,0,0-.2-.031l-.564.326a2.568,2.568,0,0,0-.807-.466V5.5a.159.159,0,0,0-.125-.155,3.3,3.3,0,0,0-1.448,0A.159.159,0,0,0,10,5.5v.652a2.569,2.569,0,0,0-.807.466l-.564-.326a.16.16,0,0,0-.2.031,3.283,3.283,0,0,0-.726,1.256.161.161,0,0,0,.072.186l.564.326a2.566,2.566,0,0,0,0,.932l-.564.326a.158.158,0,0,0-.072.186,3.3,3.3,0,0,0,.726,1.256.16.16,0,0,0,.2.031l.564-.326A2.569,2.569,0,0,0,10,10.96v.652a.159.159,0,0,0,.125.155,3.3,3.3,0,0,0,1.448,0,.159.159,0,0,0,.125-.155V10.96a2.568,2.568,0,0,0,.807-.466l.564.326a.16.16,0,0,0,.2-.031,3.283,3.283,0,0,0,.726-1.256.161.161,0,0,0-.072-.186l-.564-.326Zm-2.5.6a1.061,1.061,0,1,1,1.061-1.061A1.062,1.062,0,0,1,10.851,9.617ZM2.1,6.455a1.4,1.4,0,1,0-1.4-1.4A1.4,1.4,0,0,0,2.1,6.455Zm4.9.7c.042,0,.081-.011.123-.013a4.033,4.033,0,0,1,.794-1.3.862.862,0,0,1,.632-.276.841.841,0,0,1,.429.116l.173.1L9.2,5.757a2.422,2.422,0,0,0,.245-1.05A2.449,2.449,0,1,0,7,7.155ZM9.3,11.41c-.05-.026-.1-.057-.149-.085a1.081,1.081,0,0,1-.6.214.87.87,0,0,1-.632-.276A3.989,3.989,0,0,1,7.04,9.741a.934.934,0,0,1,.564-1.1q0-.085,0-.171l-.173-.1a.891.891,0,0,1-.214-.177c-.072,0-.142.013-.214.013a3.454,3.454,0,0,1-1.5-.35H5.323A2.521,2.521,0,0,0,2.8,10.376v.63a1.05,1.05,0,0,0,1.05,1.05H9.438a.842.842,0,0,1-.136-.444v-.2ZM3.787,7.562A1.4,1.4,0,0,0,2.8,7.155H1.4A1.4,1.4,0,0,0,0,8.556v.7a.7.7,0,0,0,.7.7H2.142A3.208,3.208,0,0,1,3.787,7.562Z" transform="translate(0 -2.257)"/>
</svg>
