<svg width="189" height="32" viewBox="0 0 189 32" fill="none" xmlns="http://www.w3.org/2000/svg">
<path d="M17.5426 31.2031L5.70663 17.5191V31.2031H0.690625V0.623123H5.70663V14.5711L17.5866 0.623123H23.8786L10.5906 15.9351L24.0986 31.2031H17.5426ZM48.8184 31.2031L41.7784 18.9711H37.9504V31.2031H32.9344V0.623123H43.4944C45.841 0.623123 47.821 1.03379 49.4344 1.85512C51.077 2.67646 52.2944 3.77646 53.0864 5.15512C53.9077 6.53379 54.3184 8.07379 54.3184 9.77512C54.3184 11.7698 53.7317 13.5885 52.5584 15.2311C51.4144 16.8445 49.6397 17.9445 47.2344 18.5311L54.8024 31.2031H48.8184ZM37.9504 14.9671H43.4944C45.3717 14.9671 46.7797 14.4978 47.7184 13.5591C48.6864 12.6205 49.1704 11.3591 49.1704 9.77512C49.1704 8.19112 48.701 6.95912 47.7624 6.07912C46.8237 5.16979 45.401 4.71512 43.4944 4.71512H37.9504V14.9671ZM83.5712 24.9551H70.7672L68.5672 31.2031H63.3312L74.2872 0.579123H80.0952L91.0512 31.2031H85.7712L83.5712 24.9551ZM82.1632 20.8631L77.1912 6.65112L72.1752 20.8631H82.1632ZM119.971 0.623123V4.71512H111.831V31.2031H106.815V4.71512H98.6308V0.623123H119.971ZM143.399 31.5111C140.553 31.5111 137.928 30.8511 135.523 29.5311C133.147 28.1818 131.255 26.3191 129.847 23.9431C128.468 21.5378 127.779 18.8391 127.779 15.8471C127.779 12.8551 128.468 10.1711 129.847 7.79512C131.255 5.41912 133.147 3.57112 135.523 2.25112C137.928 0.901789 140.553 0.227123 143.399 0.227123C146.273 0.227123 148.899 0.901789 151.275 2.25112C153.68 3.57112 155.572 5.41912 156.951 7.79512C158.329 10.1711 159.019 12.8551 159.019 15.8471C159.019 18.8391 158.329 21.5378 156.951 23.9431C155.572 26.3191 153.68 28.1818 151.275 29.5311C148.899 30.8511 146.273 31.5111 143.399 31.5111ZM143.399 27.1551C145.423 27.1551 147.227 26.7005 148.811 25.7911C150.395 24.8525 151.627 23.5325 152.507 21.8311C153.416 20.1005 153.871 18.1058 153.871 15.8471C153.871 13.5885 153.416 11.6085 152.507 9.90712C151.627 8.20579 150.395 6.90046 148.811 5.99112C147.227 5.08179 145.423 4.62712 143.399 4.62712C141.375 4.62712 139.571 5.08179 137.987 5.99112C136.403 6.90046 135.156 8.20579 134.247 9.90712C133.367 11.6085 132.927 13.5885 132.927 15.8471C132.927 18.1058 133.367 20.1005 134.247 21.8311C135.156 23.5325 136.403 24.8525 137.987 25.7911C139.571 26.7005 141.375 27.1551 143.399 27.1551ZM178.431 31.5111C176.377 31.5111 174.529 31.1591 172.887 30.4551C171.244 29.7218 169.953 28.6951 169.015 27.3751C168.076 26.0551 167.607 24.5151 167.607 22.7551H172.975C173.092 24.0751 173.605 25.1605 174.515 26.0111C175.453 26.8618 176.759 27.2871 178.431 27.2871C180.161 27.2871 181.511 26.8765 182.479 26.0551C183.447 25.2045 183.931 24.1191 183.931 22.7991C183.931 21.7725 183.623 20.9365 183.007 20.2911C182.42 19.6458 181.672 19.1471 180.763 18.7951C179.883 18.4431 178.651 18.0618 177.067 17.6511C175.072 17.1231 173.444 16.5951 172.183 16.0671C170.951 15.5098 169.895 14.6591 169.015 13.5151C168.135 12.3711 167.695 10.8458 167.695 8.93912C167.695 7.17912 168.135 5.63912 169.015 4.31912C169.895 2.99912 171.127 1.98712 172.711 1.28312C174.295 0.579123 176.128 0.227123 178.211 0.227123C181.173 0.227123 183.593 0.975123 185.471 2.47112C187.377 3.93779 188.433 5.96179 188.639 8.54312H183.095C183.007 7.42846 182.479 6.47512 181.511 5.68312C180.543 4.89112 179.267 4.49512 177.683 4.49512C176.245 4.49512 175.072 4.86179 174.163 5.59512C173.253 6.32846 172.799 7.38446 172.799 8.76312C172.799 9.70179 173.077 10.4791 173.635 11.0951C174.221 11.6818 174.955 12.1511 175.835 12.5031C176.715 12.8551 177.917 13.2365 179.443 13.6471C181.467 14.2045 183.109 14.7618 184.371 15.3191C185.661 15.8765 186.747 16.7418 187.627 17.9151C188.536 19.0591 188.991 20.5991 188.991 22.5351C188.991 24.0898 188.565 25.5565 187.715 26.9351C186.893 28.3138 185.676 29.4285 184.063 30.2791C182.479 31.1005 180.601 31.5111 178.431 31.5111Z" fill="black"/>
</svg>
