<svg xmlns="http://www.w3.org/2000/svg" width="14.952" height="9.515" viewBox="0 0 14.952 9.515">
  <path id="Icon_material-group" data-name="Icon material-group" d="M11.695,11.578A2.039,2.039,0,1,0,9.656,9.539,2.03,2.03,0,0,0,11.695,11.578Zm-5.437,0A2.039,2.039,0,1,0,4.219,9.539,2.03,2.03,0,0,0,6.258,11.578Zm0,1.359c-1.584,0-4.758.8-4.758,2.379v1.7h9.515v-1.7C11.015,13.732,7.841,12.937,6.258,12.937Zm5.437,0c-.2,0-.421.014-.659.034a2.868,2.868,0,0,1,1.339,2.345v1.7h4.078v-1.7C16.452,13.732,13.278,12.937,11.695,12.937Z" transform="translate(-1.5 -7.5)" fill="#949494"/>
</svg>